# xmcd
#
# Track frame offsets:
#	150
#	13558
#	26229
#	42061
#	55882
#	72389
#	88065
#	102197
#	115962
#	130912
#	144547
#	159050
#
# Disc length: 2311 seconds
#
# Revision: 1
# Processed by: cddbd v1.5.2PL0 Copyright (c) Steve Scherf et al.
# Submitted via: audiograbber 1.83.01
#
DISCID=9c09050c
DTITLE=Anna-Carina Woitschack - Ich wollte nie dein Engel sein
DYEAR=2017
DGENRE=Schlager
TTITLE0=Ich wollte nie dein Engel sein
TTITLE1=Das macht mich an
TTITLE2=Du bist kein Held
TTITLE3=Warum kann es nicht nur Liebe sein
TTITLE4=Dann sing ich dieses Lied
TTITLE5=Geh einen Schritt zu weit
TTITLE6=Hey, du bist der Typ
TTITLE7=Ich war erst 17
TTITLE8=Wo beginnt die Nacht
TTITLE9=Weil du nicht nur mir gehoerst
TTITLE10=Gib mir mein Herz zurueck
TTITLE11=Wovon ich traeum
EXTD=
EXTT0=
EXTT1=
EXTT2=
EXTT3=
EXTT4=
EXTT5=
EXTT6=
EXTT7=
EXTT8=
EXTT9=
EXTT10=
EXTT11=
PLAYORDER=
